<mxfile host="app.diagrams.net" agent="Mozilla/5.0 (X11; Linux x86_64; rv:142.0) Gecko/20100101 Firefox/142.0" version="28.2.7">
  <diagram name="Page-1" id="0Q4g5BotozZK9d4zDzrD">
    <mxGraphModel dx="983" dy="519" grid="1" gridSize="10" guides="1" tooltips="1" connect="1" arrows="1" fold="1" page="1" pageScale="1" pageWidth="827" pageHeight="1169" math="0" shadow="0">
      <root>
        <mxCell id="0" />
        <mxCell id="1" parent="0" />
        <mxCell id="UczolEqYZm3DpETo9vjZ-3" value="" style="rounded=0;whiteSpace=wrap;html=1;fillColor=#f8cecc;strokeColor=default;gradientColor=none;" vertex="1" parent="1">
          <mxGeometry x="160" y="360" width="200" height="80" as="geometry" />
        </mxCell>
        <mxCell id="UczolEqYZm3DpETo9vjZ-15" style="edgeStyle=orthogonalEdgeStyle;rounded=0;orthogonalLoop=1;jettySize=auto;html=1;entryX=0.25;entryY=1;entryDx=0;entryDy=0;endArrow=blockThin;endFill=1;startArrow=blockThin;startFill=1;startSize=8;endSize=8;" edge="1" parent="1" source="UczolEqYZm3DpETo9vjZ-4" target="UczolEqYZm3DpETo9vjZ-6">
          <mxGeometry relative="1" as="geometry" />
        </mxCell>
        <mxCell id="UczolEqYZm3DpETo9vjZ-16" style="edgeStyle=orthogonalEdgeStyle;shape=connector;rounded=0;orthogonalLoop=1;jettySize=auto;html=1;entryX=0;entryY=0.5;entryDx=0;entryDy=0;strokeColor=default;align=center;verticalAlign=middle;fontFamily=Helvetica;fontSize=11;fontColor=default;labelBackgroundColor=default;startArrow=blockThin;startFill=1;startSize=8;endArrow=blockThin;endFill=1;endSize=8;" edge="1" parent="1" source="UczolEqYZm3DpETo9vjZ-4" target="UczolEqYZm3DpETo9vjZ-9">
          <mxGeometry relative="1" as="geometry" />
        </mxCell>
        <mxCell id="UczolEqYZm3DpETo9vjZ-19" style="edgeStyle=orthogonalEdgeStyle;shape=connector;rounded=0;orthogonalLoop=1;jettySize=auto;html=1;strokeColor=default;align=center;verticalAlign=middle;fontFamily=Helvetica;fontSize=11;fontColor=default;labelBackgroundColor=default;startArrow=blockThin;startFill=1;startSize=8;endArrow=blockThin;endFill=1;endSize=8;" edge="1" parent="1" source="UczolEqYZm3DpETo9vjZ-4" target="UczolEqYZm3DpETo9vjZ-3">
          <mxGeometry relative="1" as="geometry" />
        </mxCell>
        <mxCell id="UczolEqYZm3DpETo9vjZ-4" value="" style="rounded=0;whiteSpace=wrap;html=1;fillColor=#ffe6cc;strokeColor=#d79b00;" vertex="1" parent="1">
          <mxGeometry x="160" y="200" width="200" height="80" as="geometry" />
        </mxCell>
        <mxCell id="UczolEqYZm3DpETo9vjZ-5" value="&lt;font&gt;Unsere Datenbank&lt;/font&gt;" style="shape=cylinder3;whiteSpace=wrap;html=1;boundedLbl=1;backgroundOutline=1;size=15;" vertex="1" parent="1">
          <mxGeometry x="480" y="320" width="120" height="160" as="geometry" />
        </mxCell>
        <mxCell id="UczolEqYZm3DpETo9vjZ-6" value="" style="rounded=0;whiteSpace=wrap;html=1;fillColor=#dae8fc;strokeColor=#6c8ebf;" vertex="1" parent="1">
          <mxGeometry x="120" y="40" width="560" height="80" as="geometry" />
        </mxCell>
        <mxCell id="UczolEqYZm3DpETo9vjZ-7" value="&lt;font style=&quot;font-size: 10px;&quot;&gt;Payment Gateway (z.B. Stripe, Mollie, ...)&lt;/font&gt;" style="text;html=1;whiteSpace=wrap;strokeColor=none;fillColor=none;align=center;verticalAlign=middle;rounded=0;" vertex="1" parent="1">
          <mxGeometry x="160" y="360" width="150" height="30" as="geometry" />
        </mxCell>
        <mxCell id="UczolEqYZm3DpETo9vjZ-8" value="&lt;font style=&quot;font-size: 10px;&quot;&gt;React&amp;nbsp;Shop Frontend&lt;/font&gt;" style="text;html=1;whiteSpace=wrap;strokeColor=none;fillColor=none;align=center;verticalAlign=middle;rounded=0;" vertex="1" parent="1">
          <mxGeometry x="120" y="40" width="110" height="30" as="geometry" />
        </mxCell>
        <mxCell id="UczolEqYZm3DpETo9vjZ-9" value="" style="rounded=0;whiteSpace=wrap;html=1;fillColor=#d5e8d4;strokeColor=#82b366;align=left;" vertex="1" parent="1">
          <mxGeometry x="440" y="200" width="200" height="80" as="geometry" />
        </mxCell>
        <mxCell id="UczolEqYZm3DpETo9vjZ-11" value="&lt;font style=&quot;font-size: 10px;&quot;&gt;Datenbank API&amp;nbsp;(REST?)&lt;/font&gt;" style="text;html=1;whiteSpace=wrap;strokeColor=none;fillColor=none;align=center;verticalAlign=middle;rounded=0;" vertex="1" parent="1">
          <mxGeometry x="440" y="200" width="80" height="30" as="geometry" />
        </mxCell>
        <mxCell id="UczolEqYZm3DpETo9vjZ-13" value="&lt;font style=&quot;font-size: 10px;&quot;&gt;Backend (REST API mit Fast API)&lt;/font&gt;" style="text;html=1;whiteSpace=wrap;strokeColor=none;fillColor=none;align=center;verticalAlign=middle;rounded=0;" vertex="1" parent="1">
          <mxGeometry x="160" y="200" width="140" height="30" as="geometry" />
        </mxCell>
        <mxCell id="UczolEqYZm3DpETo9vjZ-17" style="edgeStyle=orthogonalEdgeStyle;shape=connector;rounded=0;orthogonalLoop=1;jettySize=auto;html=1;entryX=0.5;entryY=0;entryDx=0;entryDy=0;entryPerimeter=0;strokeColor=default;align=center;verticalAlign=middle;fontFamily=Helvetica;fontSize=11;fontColor=default;labelBackgroundColor=default;startArrow=blockThin;startFill=1;startSize=8;endArrow=blockThin;endFill=1;endSize=8;" edge="1" parent="1" source="UczolEqYZm3DpETo9vjZ-9" target="UczolEqYZm3DpETo9vjZ-5">
          <mxGeometry relative="1" as="geometry" />
        </mxCell>
        <mxCell id="UczolEqYZm3DpETo9vjZ-21" style="shape=connector;rounded=0;orthogonalLoop=1;jettySize=auto;html=1;entryX=0;entryY=0;entryDx=0;entryDy=0;strokeColor=default;align=center;verticalAlign=middle;fontFamily=Helvetica;fontSize=11;fontColor=default;labelBackgroundColor=default;startArrow=none;startFill=0;startSize=8;endArrow=none;endFill=0;endSize=8;dashed=1;" edge="1" parent="1" source="UczolEqYZm3DpETo9vjZ-20" target="UczolEqYZm3DpETo9vjZ-7">
          <mxGeometry relative="1" as="geometry" />
        </mxCell>
        <mxCell id="UczolEqYZm3DpETo9vjZ-20" value="&lt;font style=&quot;font-size: 10px;&quot;&gt;Hierauf haben wir keinen Einfluss&lt;/font&gt;&amp;nbsp;drauf!" style="shape=note;size=20;whiteSpace=wrap;html=1;fontFamily=Helvetica;fontSize=11;fontColor=default;labelBackgroundColor=default;" vertex="1" parent="1">
          <mxGeometry x="10" y="280" width="110" height="70" as="geometry" />
        </mxCell>
      </root>
    </mxGraphModel>
  </diagram>
</mxfile>
